<?xml version="1.0" encoding="UTF-8" standalone="no"?>
<!DOCTYPE svg PUBLIC "-//W3C//DTD SVG 1.1//EN"
 "http://www.w3.org/Graphics/SVG/1.1/DTD/svg11.dtd">
<!-- Generated by graphviz version 2.43.0 (0)
 -->
<!-- Title: %3 Pages: 1 -->
<svg width="322pt" height="795pt"
 viewBox="0.00 0.00 321.96 794.92" xmlns="http://www.w3.org/2000/svg" xmlns:xlink="http://www.w3.org/1999/xlink">
<g id="graph0" class="graph" transform="scale(1 1) rotate(0) translate(4 790.92)">
<title>%3</title>
<polygon fill="white" stroke="transparent" points="-4,4 -4,-790.92 317.96,-790.92 317.96,4 -4,4"/>
<!-- across&#45;autoconfigure -->
<g id="node1" class="node">
<title>across&#45;autoconfigure</title>
<ellipse fill="none" stroke="black" cx="156.98" cy="-236.35" rx="116.85" ry="26.74"/>
<text text-anchor="middle" x="156.98" y="-240.15" font-family="Times,serif" font-size="14.00">across&#45;autoconfigure</text>
<text text-anchor="middle" x="156.98" y="-225.15" font-family="Times,serif" font-size="14.00">2.3&#45;SNAPSHOT</text>
</g>
<!-- across&#45;framework -->
<g id="node2" class="node">
<title>across&#45;framework</title>
<ellipse fill="none" stroke="black" cx="156.98" cy="-131.61" rx="101.65" ry="26.74"/>
<text text-anchor="middle" x="156.98" y="-135.41" font-family="Times,serif" font-size="14.00">across&#45;framework</text>
<text text-anchor="middle" x="156.98" y="-120.41" font-family="Times,serif" font-size="14.00">5.3&#45;SNAPSHOT</text>
</g>
<!-- across&#45;autoconfigure&#45;&gt;across&#45;framework -->
<g id="edge1" class="edge">
<title>across&#45;autoconfigure&#45;&gt;across&#45;framework</title>
<path fill="none" stroke="black" d="M156.98,-209.42C156.98,-197.14 156.98,-182.25 156.98,-168.86"/>
<polygon fill="black" stroke="black" points="160.48,-168.53 156.98,-158.53 153.48,-168.53 160.48,-168.53"/>
<text text-anchor="middle" x="212.48" y="-180.28" font-family="Times,serif" font-size="14.00">5.3&#45;SNAPSHOT</text>
</g>
<!-- common&#45;java&#45;libraries -->
<g id="node3" class="node">
<title>common&#45;java&#45;libraries</title>
<ellipse fill="none" stroke="black" cx="156.98" cy="-26.87" rx="123.99" ry="26.74"/>
<text text-anchor="middle" x="156.98" y="-30.67" font-family="Times,serif" font-size="14.00">common&#45;java&#45;libraries</text>
<text text-anchor="middle" x="156.98" y="-15.67" font-family="Times,serif" font-size="14.00">1.3&#45;SNAPSHOT</text>
</g>
<!-- across&#45;framework&#45;&gt;common&#45;java&#45;libraries -->
<g id="edge2" class="edge">
<title>across&#45;framework&#45;&gt;common&#45;java&#45;libraries</title>
<path fill="none" stroke="black" d="M156.98,-104.68C156.98,-92.4 156.98,-77.51 156.98,-64.12"/>
<polygon fill="black" stroke="black" points="160.48,-63.79 156.98,-53.79 153.48,-63.79 160.48,-63.79"/>
<text text-anchor="middle" x="168.48" y="-75.54" font-family="Times,serif" font-size="14.00" fill="red">1.1</text>
</g>
<!-- across&#45;base&#45;modules -->
<g id="node4" class="node">
<title>across&#45;base&#45;modules</title>
<ellipse fill="none" stroke="black" cx="156.98" cy="-341.09" rx="115.93" ry="26.74"/>
<text text-anchor="middle" x="156.98" y="-344.89" font-family="Times,serif" font-size="14.00">across&#45;base&#45;modules</text>
<text text-anchor="middle" x="156.98" y="-329.89" font-family="Times,serif" font-size="14.00">4.3&#45;SNAPSHOT</text>
</g>
<!-- across&#45;base&#45;modules&#45;&gt;across&#45;autoconfigure -->
<g id="edge3" class="edge">
<title>across&#45;base&#45;modules&#45;&gt;across&#45;autoconfigure</title>
<path fill="none" stroke="black" d="M156.98,-314.16C156.98,-301.88 156.98,-286.99 156.98,-273.6"/>
<polygon fill="black" stroke="black" points="160.48,-273.27 156.98,-263.27 153.48,-273.27 160.48,-273.27"/>
<text text-anchor="middle" x="212.48" y="-285.02" font-family="Times,serif" font-size="14.00">2.3&#45;SNAPSHOT</text>
</g>
<!-- across&#45;entity&#45;admin&#45;modules -->
<g id="node5" class="node">
<title>across&#45;entity&#45;admin&#45;modules</title>
<ellipse fill="none" stroke="black" cx="156.98" cy="-445.83" rx="156.96" ry="26.74"/>
<text text-anchor="middle" x="156.98" y="-449.63" font-family="Times,serif" font-size="14.00">across&#45;entity&#45;admin&#45;modules</text>
<text text-anchor="middle" x="156.98" y="-434.63" font-family="Times,serif" font-size="14.00">4.3&#45;SNAPSHOT</text>
</g>
<!-- across&#45;entity&#45;admin&#45;modules&#45;&gt;across&#45;base&#45;modules -->
<g id="edge4" class="edge">
<title>across&#45;entity&#45;admin&#45;modules&#45;&gt;across&#45;base&#45;modules</title>
<path fill="none" stroke="black" d="M156.98,-418.9C156.98,-406.62 156.98,-391.73 156.98,-378.34"/>
<polygon fill="black" stroke="black" points="160.48,-378.01 156.98,-368.01 153.48,-378.01 160.48,-378.01"/>
<text text-anchor="middle" x="212.48" y="-389.76" font-family="Times,serif" font-size="14.00">4.3&#45;SNAPSHOT</text>
</g>
<!-- across&#45;media&#45;modules -->
<g id="node6" class="node">
<title>across&#45;media&#45;modules</title>
<ellipse fill="none" stroke="black" cx="156.98" cy="-655.31" rx="123.99" ry="26.74"/>
<text text-anchor="middle" x="156.98" y="-659.11" font-family="Times,serif" font-size="14.00">across&#45;media&#45;modules</text>
<text text-anchor="middle" x="156.98" y="-644.11" font-family="Times,serif" font-size="14.00">6.3&#45;SNAPSHOT</text>
</g>
<!-- across&#45;user&#45;auth&#45;modules -->
<g id="node7" class="node">
<title>across&#45;user&#45;auth&#45;modules</title>
<ellipse fill="none" stroke="black" cx="156.98" cy="-550.57" rx="141.34" ry="26.74"/>
<text text-anchor="middle" x="156.98" y="-554.37" font-family="Times,serif" font-size="14.00">across&#45;user&#45;auth&#45;modules</text>
<text text-anchor="middle" x="156.98" y="-539.37" font-family="Times,serif" font-size="14.00">4.3&#45;SNAPSHOT</text>
</g>
<!-- across&#45;media&#45;modules&#45;&gt;across&#45;user&#45;auth&#45;modules -->
<g id="edge5" class="edge">
<title>across&#45;media&#45;modules&#45;&gt;across&#45;user&#45;auth&#45;modules</title>
<path fill="none" stroke="black" d="M156.98,-628.39C156.98,-616.1 156.98,-601.21 156.98,-587.82"/>
<polygon fill="black" stroke="black" points="160.48,-587.49 156.98,-577.49 153.48,-587.49 160.48,-587.49"/>
<text text-anchor="middle" x="212.48" y="-599.24" font-family="Times,serif" font-size="14.00">4.3&#45;SNAPSHOT</text>
</g>
<!-- across&#45;user&#45;auth&#45;modules&#45;&gt;across&#45;entity&#45;admin&#45;modules -->
<g id="edge6" class="edge">
<title>across&#45;user&#45;auth&#45;modules&#45;&gt;across&#45;entity&#45;admin&#45;modules</title>
<path fill="none" stroke="black" d="M156.98,-523.64C156.98,-511.36 156.98,-496.47 156.98,-483.08"/>
<polygon fill="black" stroke="black" points="160.48,-482.75 156.98,-472.75 153.48,-482.75 160.48,-482.75"/>
<text text-anchor="middle" x="212.48" y="-494.5" font-family="Times,serif" font-size="14.00">4.3&#45;SNAPSHOT</text>
</g>
<!-- across&#45;platform -->
<g id="node8" class="node">
<title>across&#45;platform</title>
<ellipse fill="none" stroke="black" cx="156.98" cy="-760.05" rx="90.52" ry="26.74"/>
<text text-anchor="middle" x="156.98" y="-763.85" font-family="Times,serif" font-size="14.00">across&#45;platform</text>
<text text-anchor="middle" x="156.98" y="-748.85" font-family="Times,serif" font-size="14.00">5.3&#45;SNAPSHOT</text>
</g>
<!-- across&#45;platform&#45;&gt;across&#45;media&#45;modules -->
<g id="edge7" class="edge">
<title>across&#45;platform&#45;&gt;across&#45;media&#45;modules</title>
<path fill="none" stroke="black" d="M156.98,-733.13C156.98,-720.84 156.98,-705.95 156.98,-692.56"/>
<polygon fill="black" stroke="black" points="160.48,-692.23 156.98,-682.23 153.48,-692.23 160.48,-692.23"/>
<text text-anchor="middle" x="212.48" y="-703.98" font-family="Times,serif" font-size="14.00">6.3&#45;SNAPSHOT</text>
</g>
</g>
</svg>
